<svg width="151" height="71" viewBox="0 0 151 71" fill="none" xmlns="http://www.w3.org/2000/svg">
<g clip-path="url(#clip0_586_85)">
<path d="M136.615 68.1407C134.543 68.2359 133.139 66.9264 133.042 64.8241L132.381 50.4428C132.285 48.3404 133.562 46.9077 135.634 46.8125L142.155 46.5128C144.166 46.4204 145.433 47.4308 145.515 49.198C145.596 50.9652 144.426 52.0876 142.415 52.18L140.465 52.2696C139.642 52.3074 139.082 52.7302 139.114 53.4309L139.12 53.5528C139.156 54.345 139.694 54.7478 140.577 54.7071L141.918 54.6455C143.594 54.5685 144.641 55.4364 144.712 56.9903C144.787 58.6051 143.826 59.6263 142.15 59.7034L140.81 59.765C139.926 59.8056 139.429 60.2864 139.465 61.0786L139.47 61.17C139.503 61.9013 140.071 62.3026 140.924 62.2634L142.905 62.1724C144.946 62.0786 146.214 63.089 146.295 64.8562C146.377 66.6233 145.207 67.7458 143.165 67.8396L136.615 68.1407Z" fill="black"/>
<path d="M125.961 39.4293C128.031 39.3019 129.327 40.5055 129.46 42.667L130.367 57.4016C130.5 59.5631 129.395 60.9757 127.447 61.0956C125.712 61.2024 124.582 60.2329 123.785 58.693L120.385 52.1181L120.751 58.0546C120.884 60.2161 119.745 61.5697 117.674 61.6971C115.604 61.8245 114.308 60.6208 114.175 58.4593L113.264 43.6638C113.131 41.5023 114.331 40.145 116.401 40.0176C118.045 39.9164 119.22 40.6386 120.056 42.2985L123.231 48.7038L122.884 43.0717C122.751 40.9103 123.89 39.5567 125.961 39.4293Z" fill="black"/>
<path d="M99.8271 69.8479C96.9671 70.0498 95.7369 67.7822 96.2319 65.6986L99.6734 51.2069C100.168 49.1233 101.612 47.9206 103.864 47.7617C106.115 47.6028 107.714 48.5908 108.497 50.5842L113.939 64.4489C114.683 66.3227 113.975 68.8494 110.932 69.0642C109.168 69.1887 108.091 68.2251 107.553 66.245L107.389 65.645L103.007 65.9542L102.816 66.7016C102.347 68.7222 101.318 69.7427 99.8271 69.8479ZM103.433 61.1542L106.202 60.9588L104.343 54.5466L103.433 61.1542Z" fill="black"/>
<path d="M82.3491 66.6752C80.2751 66.6752 79.055 65.3942 79.055 63.2286V48.6186C79.055 46.5141 80.3971 45.1415 82.4711 45.1415H87.0768C91.8045 45.1415 94.8851 47.7951 94.8851 51.8517C94.8851 54.1088 93.909 55.8169 91.9875 57.0064C93.543 58.684 94.4885 60.9105 94.4885 62.9846C94.4885 65.3027 93.299 66.5837 91.2249 66.5837C89.4254 66.5837 88.3273 65.6077 88.1138 63.7776C87.7783 61.002 87.0158 59.2635 86.1313 59.2635H86.1008C85.8263 59.2635 85.6432 59.477 85.6432 59.8125V63.2286C85.6432 65.3942 84.4232 66.6752 82.3491 66.6752ZM86.7718 54.3528C87.8393 54.3528 88.5103 53.5903 88.5103 52.3703C88.5103 51.1502 87.8698 50.4182 86.8328 50.4182H86.8023C86.0398 50.4182 85.6432 50.7842 85.6432 51.5467V53.3768C85.6432 54.0173 86.0093 54.3528 86.7413 54.3528H86.7718Z" fill="black"/>
<path d="M69.1894 70.0194C63.6473 69.702 60.2712 65.1704 60.6514 58.5321C61.0315 51.8937 64.8723 47.7754 70.6276 48.105C74.099 48.3038 77.2005 50.1617 77.0348 53.0545C76.9337 54.8207 75.612 56.0282 73.8458 55.927C71.5315 55.7945 71.7901 53.9457 70.0849 53.8481C68.471 53.7556 67.5459 55.5052 67.3506 58.9157C67.1553 62.3262 67.9355 64.1734 69.6408 64.2711C70.6152 64.3269 71.2539 63.8441 71.301 63.0219C71.3289 62.5347 71.1436 62.0352 70.5111 61.8768C69.1261 61.5226 68.6233 60.6994 68.6878 59.5727C68.775 58.0502 69.8035 57.162 71.3565 57.2509L74.4625 57.4288C76.7159 57.5578 77.7032 58.9891 77.5358 61.9125C77.2272 67.3023 74.1225 70.3018 69.1894 70.0194Z" fill="black"/>
<path d="M52.1815 63.9771C46.6628 63.3767 43.3719 58.9381 44.1175 52.0853C44.8531 45.3235 48.947 41.5349 54.8295 42.1748C58.5591 42.5806 60.9181 44.586 60.6443 47.1028C60.4596 48.8008 59.0712 49.9997 57.4338 49.8216C55.8268 49.6468 55.7597 48.2895 54.2739 48.1279C52.4545 47.9299 51.1248 49.7182 50.7916 52.7807C50.4618 55.8129 51.4029 57.8789 53.2222 58.0768C54.7686 58.2451 55.1662 56.8463 56.743 57.0179C58.4107 57.1993 59.4851 58.6048 59.3003 60.3028C59.0166 62.9105 56.1233 64.4059 52.1815 63.9771Z" fill="black"/>
<path d="M24.4122 70.6759C22.1394 70.9373 20.8595 69.5036 20.8497 66.9907L20.7975 54.3956C20.7683 51.0876 22.2797 49.064 25.0108 48.7868C27.3473 48.5496 29.0762 49.8763 29.9027 52.5823L31.5527 57.9639L32.1179 52.3574C32.4142 49.5375 33.8715 47.8873 36.2081 47.6502C38.9392 47.3729 40.7688 49.088 41.4018 52.3041L43.9727 64.6435C44.5076 67.1951 43.472 68.7718 41.2841 68.9632C39.3116 69.1635 38.0687 68.094 37.6556 65.8366L36.254 58.0691L35.5896 66.3222C35.4107 68.4864 34.4868 69.6532 32.8178 69.8226C31.1792 69.989 30.0396 69.0316 29.3992 66.9506L26.9684 59.0117L27.2776 66.89C27.3569 69.1813 26.3815 70.4453 24.4122 70.6759Z" fill="black"/>
<path d="M133.529 37.7626C129.885 37.4137 128.036 35.1224 128.394 31.3879L130.422 10.2103C130.732 6.97675 132.736 5.23839 135.833 5.53495C138.93 5.83152 140.569 7.91878 140.259 11.1523L138.763 26.7737C138.624 28.2311 139.196 28.9753 140.653 29.1148L143.386 29.3765C146.756 29.6992 148.553 31.5719 148.27 34.5322C147.99 37.4469 145.871 38.9445 142.501 38.6218L133.529 37.7626Z" fill="black"/>
<path d="M113.093 33.2906C109.997 33.5888 107.796 31.7324 107.493 28.5901L105.423 7.09479C105.121 3.95247 106.927 1.71018 110.024 1.412L119.77 0.473585C122.775 0.184169 124.751 1.6027 125.005 4.24407C125.259 6.88545 123.591 8.65478 120.585 8.9442L117.671 9.22484C116.441 9.34324 115.633 10.0186 115.734 11.066L115.751 11.2482C115.865 12.4323 116.701 12.9953 118.022 12.8681L120.025 12.6752C122.53 12.434 124.164 13.6555 124.388 15.9781C124.621 18.3918 123.258 19.9938 120.753 20.235L118.749 20.4279C117.429 20.5551 116.72 21.3127 116.834 22.4968L116.848 22.6334C116.953 23.7264 117.834 24.285 119.109 24.1623L122.069 23.8772C125.12 23.5834 127.096 25.002 127.35 27.6433C127.604 30.2847 125.936 32.054 122.885 32.3478L113.093 33.2906Z" fill="black"/>
<path d="M87.4189 43.1198C84.3154 43.3368 82.3557 41.5476 82.1291 38.3072L80.5781 16.1261C80.3515 12.8856 82.0431 10.8411 85.1466 10.6241C88.2501 10.4071 90.2098 12.1963 90.4363 15.4367L90.7555 20.0007C90.8704 21.6438 91.622 22.5544 92.763 22.4746L93.2194 22.4426C94.3604 22.3629 94.978 21.3565 94.8631 19.7135L94.544 15.1495C94.3174 11.909 96.0089 9.8645 99.1125 9.64748C102.216 9.43047 104.176 11.2197 104.402 14.4601L105.953 36.6412C106.18 39.8817 104.488 41.9262 101.385 42.1432C98.2813 42.3603 96.3216 40.571 96.095 37.3306L95.7759 32.7666C95.661 31.1235 94.9093 30.213 93.7683 30.2927L93.3119 30.3247C92.1709 30.4044 91.5534 31.4108 91.6683 33.0538L91.9874 37.6178C92.214 40.8583 90.5224 42.9028 87.4189 43.1198Z" fill="black"/>
<path d="M68.8479 43.9309C60.5262 43.6403 55.1145 37.3627 55.4754 27.0291C55.8314 16.8327 61.5386 10.7145 70.409 11.0242C76.033 11.2206 79.7828 13.961 79.6503 17.7561C79.5608 20.3166 77.6159 22.263 75.1469 22.1767C72.7235 22.0921 72.4737 20.0691 70.2332 19.9909C67.4898 19.895 65.6974 22.7166 65.5362 27.3347C65.3765 31.907 67.0118 34.894 69.7552 34.9898C72.0871 35.0712 72.528 32.935 74.9056 33.018C77.4204 33.1059 79.1823 35.0901 79.0929 37.6506C78.9556 41.5829 74.7919 44.1385 68.8479 43.9309Z" fill="black"/>
<path d="M32.6257 36.2167C28.3414 36.5915 26.4392 33.2216 27.1291 30.0842L31.9253 8.26293C32.6152 5.1255 34.7505 3.28534 38.1233 2.99026C41.496 2.69518 43.9184 4.1366 45.1427 7.10655L53.6552 27.7635C54.818 30.5551 53.8192 34.3625 49.2615 34.7613C46.618 34.9925 44.9784 33.5745 44.1227 30.6182L43.8606 29.7226L37.2975 30.2968L37.0285 31.4226C36.3762 34.4649 34.859 36.0213 32.6257 36.2167ZM37.8148 23.087L41.9624 22.7242L39.0125 13.154L37.8148 23.087Z" fill="black"/>
<path d="M13.653 50.8729C10.6624 51.7304 8.37359 50.3877 7.47823 47.2652L1.43764 26.1991C0.567488 23.1646 1.93509 20.6306 4.92567 19.7731L11.5665 17.8689C18.3833 15.9142 23.9224 18.4667 25.5996 24.3159C26.5328 27.5704 25.8317 30.4368 23.5528 32.9464C26.4893 34.7221 28.7733 37.5417 29.6308 40.5323C30.5892 43.8747 29.4037 46.2136 26.4131 47.0712C23.8183 47.8152 21.8316 46.8619 20.767 44.3114C19.1357 40.448 17.3174 38.2565 16.042 38.6222L15.998 38.6348C15.6022 38.7483 15.4266 39.1318 15.5653 39.6156L16.9777 44.5412C17.8731 47.6638 16.6436 50.0153 13.653 50.8729ZM14.9352 31.2767C16.4745 30.8353 17.1268 29.4584 16.6223 27.6992C16.1179 25.9401 14.8917 25.1494 13.3964 25.5781L13.3524 25.5908C12.2529 25.906 11.8325 26.5977 12.1478 27.6972L12.9044 30.336C13.1693 31.2595 13.8357 31.592 14.8912 31.2893L14.9352 31.2767Z" fill="black"/>
</g>
<defs>
<clipPath id="clip0_586_85">
<rect width="150.908" height="71" fill="white"/>
</clipPath>
</defs>
</svg>
